<svg xmlns="http://www.w3.org/2000/svg" version="1.1" xmlns:xlink="http://www.w3.org/1999/xlink" viewBox="0 0 200 200" width="200" height="200"><metadata><rdf:RDF xmlns:rdf="http://www.w3.org/1999/02/22-rdf-syntax-ns#" xmlns:dc="http://purl.org/dc/elements/1.1/"><rdf:Description><dc:creator>RealFaviconGenerator</dc:creator><dc:source>https://realfavicongenerator.net</dc:source></rdf:Description></rdf:RDF></metadata><rect width="200" height="200" fill="url('#gradient')"></rect><defs><linearGradient id="gradient" gradientTransform="rotate(72 0.5 0.5)"><stop offset="0%" stop-color="#ffffff"></stop><stop offset="100%" stop-color="#ffffff"></stop></linearGradient></defs><g><g fill="#2e9c5c" transform="matrix(2.3429744793194485,0,0,2.3429744793194485,19.483444908763985,116.42596951703166)" stroke="#ffffff" stroke-width="0"><path d="M12.95-14.22L12.95 0L9.54 0L4.50-8.85L4.50 0L1.07 0L1.07-14.22L4.50-14.22L9.53-5.37L9.53-14.22L12.95-14.22ZM26.34 0L26.24-1.14Q25.20 0.20 23.42 0.20L23.42 0.20Q21.68 0.20 20.79-0.82Q19.89-1.83 19.89-3.72L19.89-3.72L19.89-10.57L23.18-10.57L23.18-3.70Q23.18-2.34 24.50-2.34L24.50-2.34Q25.63-2.34 26.11-3.15L26.11-3.15L26.11-10.57L29.42-10.57L29.42 0L26.34 0ZM36.23-10.57L39.32-10.57L39.42-9.33Q40.55-10.76 42.44-10.76L42.44-10.76Q44.44-10.76 45.15-9.17L45.15-9.17Q46.22-10.76 48.25-10.76L48.25-10.76Q51.46-10.76 51.55-6.88L51.55-6.88L51.55 0L48.25 0L48.25-6.67Q48.25-7.48 47.98-7.85Q47.71-8.22 46.98-8.22L46.98-8.22Q46.01-8.22 45.53-7.35L45.53-7.35L45.54-7.22L45.54 0L42.24 0L42.24-6.65Q42.24-7.48 41.97-7.85Q41.71-8.22 40.97-8.22L40.97-8.22Q40.02-8.22 39.52-7.35L39.52-7.35L39.52 0L36.23 0L36.23-10.57ZM67.66 0L64.37 0Q64.19-0.32 64.05-0.95L64.05-0.95Q63.14 0.20 61.51 0.20L61.51 0.20Q60.02 0.20 58.97-0.71Q57.93-1.61 57.93-2.98L57.93-2.98Q57.93-4.70 59.20-5.58Q60.47-6.46 62.89-6.46L62.89-6.46L63.91-6.46L63.91-7.01Q63.91-8.47 62.65-8.47L62.65-8.47Q61.47-8.47 61.47-7.31L61.47-7.31L58.18-7.31Q58.18-8.85 59.49-9.80Q60.79-10.76 62.81-10.76Q64.83-10.76 66.01-9.78Q67.18-8.79 67.21-7.07L67.21-7.07L67.21-2.39Q67.23-0.94 67.66-0.17L67.66-0.17L67.66 0ZM62.30-2.15L62.30-2.15Q62.92-2.15 63.33-2.41Q63.73-2.68 63.91-3.01L63.91-3.01L63.91-4.70L62.95-4.70Q61.23-4.70 61.23-3.15L61.23-3.15Q61.23-2.71 61.53-2.43Q61.84-2.15 62.30-2.15Z"></path></g></g></svg>